<?xml version="1.0" encoding="utf-8"?>
<!-- Generator: Adobe Illustrator 17.1.0, SVG Export Plug-In . SVG Version: 6.00 Build 0)  -->
<!DOCTYPE svg PUBLIC "-//W3C//DTD SVG 1.1//EN" "http://www.w3.org/Graphics/SVG/1.1/DTD/svg11.dtd">
<svg version="1.1" id="Layer_1" xmlns="http://www.w3.org/2000/svg" xmlns:xlink="http://www.w3.org/1999/xlink" x="0px" y="0px"
	 viewBox="0 0 80 70.6" enable-background="new 0 0 80 70.6" xml:space="preserve">
<g>
	<path fill="#E77E23" d="M35.9,53.1h-3.1v-18c0-2-0.4-3.9-1.2-5.8c-0.8-1.8-1.8-3.4-3.2-4.8c-1.3-1.4-2.9-2.4-4.7-3.2
		c-1.8-0.8-3.7-1.2-5.8-1.2c-2,0-4,0.4-5.8,1.2s-3.3,1.9-4.7,3.2c-1.3,1.4-2.4,3-3.2,4.8c-0.8,1.8-1.2,3.7-1.2,5.8
		c0,2.1,0.4,4,1.2,5.8c0.8,1.8,1.8,3.4,3.2,4.8c1.3,1.3,2.9,2.4,4.7,3.2s3.7,1.2,5.8,1.2c0.7,0,1.3,0,2-0.1c0.6-0.1,1.3-0.2,1.9-0.4
		c0.2,0.6,0.5,1.3,0.8,2c0,0.3,0.2,0.6,0.4,0.9c-0.8,0.2-1.6,0.4-2.5,0.5c-0.8,0.1-1.7,0.2-2.5,0.2c-2.4,0-4.7-0.5-6.9-1.4
		c-2.2-1-4.1-2.3-5.7-3.9c-1.6-1.7-2.9-3.6-3.9-5.8c-1-2.2-1.4-4.5-1.4-7c0-2.3,0.5-4.5,1.4-6.7c0.9-2.2,2.2-4.1,3.8-5.8
		c1.6-1.7,3.5-3.1,5.7-4.1c2.2-1,4.6-1.5,7.1-1.5c2.4,0,4.7,0.5,6.9,1.4c2.2,1,4.1,2.3,5.8,3.9c1.6,1.7,2.9,3.6,3.9,5.8
		c1,2.2,1.4,4.5,1.4,7V53.1z"/>
	<path fill="#E77E23" d="M72.3,59.4c0,4.2-1.3,7.9-3.9,11.2l-2.4-2.2c0.8-1,1.5-2.1,2.1-3.4c0.6-1.2,0.9-2.5,0.9-3.9l0.1-26
		c0-2.1-0.4-4-1.1-5.9c-0.8-1.8-1.8-3.5-3.1-4.9c-1.3-1.4-2.9-2.5-4.7-3.3c-1.8-0.8-3.7-1.2-5.8-1.2c-2,0-4,0.4-5.8,1.2
		c-1.8,0.8-3.4,1.9-4.7,3.3c-1.4,1.4-2.4,3-3.2,4.9c-0.8,1.8-1.2,3.8-1.2,5.9c0,2.1,0.4,4,1.2,5.8c0.8,1.8,1.8,3.4,3.2,4.8
		c1.3,1.3,2.9,2.4,4.7,3.2s3.7,1.2,5.8,1.2c0.7,0,1.3,0,2-0.1c0.6-0.1,1.3-0.2,1.9-0.4c0.1,0.3,0.3,0.7,0.4,1c0.1,0.3,0.2,0.7,0.4,1
		c0,0.3,0.2,0.6,0.4,0.9c-0.8,0.2-1.6,0.4-2.5,0.5s-1.7,0.2-2.5,0.2c-2.4,0-4.7-0.5-6.9-1.4c-2.2-1-4.1-2.3-5.7-3.9
		c-1.6-1.7-2.9-3.6-3.9-5.8c-1-2.2-1.4-4.5-1.4-7c0-2.3,0.5-4.5,1.4-6.7c0.9-2.2,2.2-4.1,3.8-5.8c1.6-1.7,3.5-3.1,5.7-4.1
		c2.2-1,4.6-1.5,7.1-1.5c2.4,0,4.7,0.5,6.9,1.4c2.2,1,4.1,2.3,5.8,3.9c1.7,1.7,3,3.6,3.9,5.8c1,2.2,1.4,4.5,1.4,7L72.3,59.4
		L72.3,59.4z"/>
	<path fill="#E77E23" d="M76.8,53.1V3.3L80,0v53.1H76.8z"/>
</g>
</svg>
